<svg width="159" height="24" viewBox="0 0 159 24" fill="none" xmlns="http://www.w3.org/2000/svg">
<path d="M6.41633 0.785276V1.57055H4.8H3.18367V2.38037V3.19018H2.37551H1.56735V4.88344V6.57669H0.783673H0V12.1718V17.7669H0.783673H1.56735L1.57714 19.2736L1.59184 20.7853L2.3902 20.8L3.18367 20.8098V21.5951V22.3804H4.8H6.41633V23.1902V24H12H17.5837V23.1902V22.3804H19.2H20.8163V21.5951V20.8098L21.6147 20.8L22.4082 20.7853L22.4229 19.2736L22.4327 17.7669H23.2163H24V12.1718V6.57669H23.2163H22.4327V4.88344V3.19018H21.6245H20.8163V2.38037V1.57055H19.2H17.5837V0.785276V1.03377e-07H12H6.41633V0.785276ZM15.9771 5.60491L15.9918 6.40491L16.7902 6.41963L17.5837 6.42945V7.21472V8H18.3673H19.151V11.9755V15.9509H18.3673H17.5837V16.7607V17.5706H16.7755H15.9673V18.3558V19.1411H12H8.03265V18.3558V17.5706H7.22449H6.41633V16.7607V15.9509H5.63265H4.84898V11.9755V8H5.63265H6.41633V7.21472V6.42945L7.21469 6.41963L8.00816 6.40491L8.02286 5.60491L8.03265 4.80982H12H15.9673L15.9771 5.60491Z" fill="#F5E9E0"/>
<path d="M9.60003 7.19019V8.00001H8.79187H7.9837V9.5951V11.1902H8.79187H9.60003V11.9755V12.7607L8.80656 12.7706L8.00819 12.7853V14.3804V15.9755L8.80656 15.9902L9.60003 16V16.7853V17.5706H12H14.4V16.7853V16L15.1984 15.9902L15.9919 15.9755V14.3804V12.7853L15.1984 12.7706L14.4 12.7607V11.9755V11.1902H15.2082H16.0164V9.5951V8.00001H15.2082H14.4V7.19019V6.38037H12H9.60003V7.19019ZM14.4 9.5951V11.1902H12H9.60003V9.5951V8.00001H12H14.4V9.5951ZM14.4 14.3804V15.9509H12H9.60003V14.3804V12.8098H12H14.4V14.3804Z" fill="#F5E9E0"/>
<path d="M46.4137 9.8299H44.4215C44.3647 9.5032 44.2599 9.21378 44.1073 8.96165C43.9546 8.70597 43.7646 8.48935 43.5373 8.31179C43.31 8.13423 43.0508 8.00107 42.7596 7.91229C42.472 7.81996 42.1612 7.77379 41.8274 7.77379C41.2344 7.77379 40.7088 7.92294 40.2507 8.22124C39.7926 8.51598 39.434 8.94922 39.1747 9.52095C38.9155 10.0891 38.7859 10.7834 38.7859 11.6037C38.7859 12.4382 38.9155 13.1413 39.1747 13.7131C39.4375 14.2812 39.7962 14.7109 40.2507 15.0021C40.7088 15.2898 41.2326 15.4336 41.8221 15.4336C42.1488 15.4336 42.4542 15.391 42.7383 15.3058C43.0259 15.217 43.2834 15.0874 43.5107 14.9169C43.7415 14.7464 43.935 14.5369 44.0913 14.2884C44.2511 14.0398 44.3612 13.7557 44.4215 13.4361L46.4137 13.4467C46.3391 13.9652 46.1776 14.4517 45.929 14.9062C45.684 15.3608 45.3626 15.7621 44.9648 16.1101C44.5671 16.4545 44.1019 16.7244 43.5693 16.9197C43.0366 17.1115 42.4453 17.2074 41.7955 17.2074C40.8367 17.2074 39.9808 16.9854 39.228 16.5415C38.4751 16.0977 37.8821 15.4567 37.4489 14.6186C37.0156 13.7805 36.799 12.7756 36.799 11.6037C36.799 10.4283 37.0174 9.4233 37.4542 8.58878C37.891 7.75071 38.4858 7.10973 39.2386 6.66584C39.9915 6.22195 40.8438 6 41.7955 6C42.4027 6 42.9673 6.08523 43.4894 6.25568C44.0114 6.42614 44.4766 6.67649 44.8849 7.00675C45.2933 7.33345 45.6289 7.73473 45.8917 8.21058C46.158 8.68288 46.332 9.22266 46.4137 9.8299Z" fill="#CE422B"/>
<path d="M57.9713 11.6037C57.9713 12.7791 57.7512 13.7859 57.3108 14.6239C56.874 15.4585 56.2774 16.0977 55.521 16.5415C54.7682 16.9854 53.9142 17.2074 52.9589 17.2074C52.0036 17.2074 51.1478 16.9854 50.3914 16.5415C49.6386 16.0941 49.042 15.4531 48.6017 14.6186C48.1649 13.7805 47.9465 12.7756 47.9465 11.6037C47.9465 10.4283 48.1649 9.4233 48.6017 8.58878C49.042 7.75071 49.6386 7.10973 50.3914 6.66584C51.1478 6.22195 52.0036 6 52.9589 6C53.9142 6 54.7682 6.22195 55.521 6.66584C56.2774 7.10973 56.874 7.75071 57.3108 8.58878C57.7512 9.4233 57.9713 10.4283 57.9713 11.6037ZM55.9845 11.6037C55.9845 10.7763 55.8549 10.0785 55.5956 9.5103C55.3399 8.93857 54.9848 8.5071 54.5303 8.21591C54.0757 7.92117 53.5519 7.77379 52.9589 7.77379C52.3659 7.77379 51.8421 7.92117 51.3875 8.21591C50.933 8.5071 50.5761 8.93857 50.3169 9.5103C50.0612 10.0785 49.9333 10.7763 49.9333 11.6037C49.9333 12.4311 50.0612 13.1307 50.3169 13.7024C50.5761 14.2706 50.933 14.7021 51.3875 14.9968C51.8421 15.288 52.3659 15.4336 52.9589 15.4336C53.5519 15.4336 54.0757 15.288 54.5303 14.9968C54.9848 14.7021 55.3399 14.2706 55.5956 13.7024C55.8549 13.1307 55.9845 12.4311 55.9845 11.6037Z" fill="#CE422B"/>
<path d="M59.8397 6.14915H62.258L65.4966 14.054H65.6245L68.8631 6.14915H71.2814V17.0582H69.3851V9.56357H69.2839L66.269 17.0263H64.8521L61.8372 9.54759H61.736V17.0582H59.8397V6.14915Z" fill="#CE422B"/>
<path d="M73.4334 17.0582V6.14915H77.6096C78.3979 6.14915 79.0531 6.27344 79.5751 6.52202C80.1007 6.76705 80.4931 7.10263 80.7523 7.52876C81.0151 7.9549 81.1465 8.43786 81.1465 8.97763C81.1465 9.42152 81.0613 9.80149 80.8908 10.1175C80.7204 10.43 80.4913 10.6839 80.2037 10.8793C79.916 11.0746 79.5946 11.2148 79.2395 11.3001V11.4066C79.6266 11.4279 79.9977 11.5469 80.3528 11.7635C80.7115 11.9766 81.0044 12.2784 81.2317 12.669C81.459 13.0597 81.5726 13.532 81.5726 14.0859C81.5726 14.6506 81.4359 15.1584 81.1625 15.6094C80.889 16.0568 80.4771 16.4102 79.9267 16.6694C79.3762 16.9286 78.6838 17.0582 77.8493 17.0582H73.4334ZM75.4096 15.407H77.535C78.2523 15.407 78.769 15.2702 79.0851 14.9968C79.4047 14.7198 79.5645 14.3647 79.5645 13.9315C79.5645 13.6083 79.4846 13.3171 79.3248 13.0579C79.165 12.7951 78.9377 12.5891 78.6429 12.44C78.3482 12.2873 77.9966 12.2109 77.5882 12.2109H75.4096V15.407ZM75.4096 10.7887H77.3645C77.7054 10.7887 78.0126 10.7266 78.286 10.6023C78.5595 10.4744 78.7743 10.2951 78.9306 10.0643C79.0904 9.8299 79.1703 9.55291 79.1703 9.23331C79.1703 8.81072 79.0211 8.46271 78.7228 8.18928C78.4281 7.91584 77.9895 7.77912 77.4071 7.77912H75.4096V10.7887Z" fill="#CE422B"/>
<path d="M84.6927 17.0582H82.5834L86.4239 6.14915H88.8636L92.7094 17.0582H90.6001L87.6864 8.38636H87.6011L84.6927 17.0582ZM84.762 12.7809H90.5148V14.3683H84.762V12.7809Z" fill="#CE422B"/>
<path d="M92.3485 7.80575V6.14915H101.052V7.80575H97.6806V17.0582H95.7204V7.80575H92.3485Z" fill="#CE422B"/>
<path d="M107.852 17.0582H105.743L109.583 6.14915H112.023L115.869 17.0582H113.759L110.846 8.38636H110.76L107.852 17.0582ZM107.921 12.7809H113.674V14.3683H107.921V12.7809Z" fill="#CE422B"/>
<path d="M123.058 9.14808C123.009 8.68288 122.799 8.32067 122.43 8.06143C122.064 7.8022 121.588 7.67259 121.002 7.67259C120.59 7.67259 120.237 7.73473 119.942 7.85902C119.647 7.98331 119.422 8.15199 119.266 8.36506C119.109 8.57813 119.03 8.82138 119.026 9.09482C119.026 9.32209 119.078 9.51918 119.18 9.68608C119.287 9.85298 119.431 9.99503 119.612 10.1122C119.793 10.2259 119.994 10.3217 120.214 10.3999C120.434 10.478 120.656 10.5437 120.88 10.5969L121.902 10.8526C122.314 10.9485 122.71 11.0781 123.09 11.2415C123.474 11.4048 123.817 11.6108 124.118 11.8594C124.424 12.108 124.665 12.408 124.843 12.7596C125.02 13.1112 125.109 13.5231 125.109 13.9954C125.109 14.6346 124.946 15.1974 124.619 15.6839C124.292 16.1669 123.82 16.5451 123.202 16.8185C122.588 17.0884 121.844 17.2234 120.97 17.2234C120.122 17.2234 119.385 17.092 118.76 16.8292C118.138 16.5664 117.652 16.1829 117.3 15.6786C116.952 15.1744 116.764 14.56 116.736 13.8356H118.68C118.708 14.2156 118.825 14.5316 119.031 14.7837C119.237 15.0359 119.505 15.2241 119.836 15.3484C120.169 15.4727 120.542 15.5348 120.954 15.5348C121.384 15.5348 121.76 15.4709 122.084 15.343C122.41 15.2116 122.666 15.0305 122.851 14.7997C123.035 14.5653 123.129 14.2919 123.133 13.9794C123.129 13.6953 123.046 13.4609 122.883 13.2763C122.719 13.0881 122.49 12.9318 122.195 12.8075C121.904 12.6797 121.563 12.5661 121.173 12.4666L119.932 12.147C119.033 11.9162 118.323 11.5664 117.801 11.0977C117.282 10.6254 117.023 9.99858 117.023 9.21733C117.023 8.57457 117.197 8.01172 117.545 7.52876C117.897 7.04581 118.374 6.67116 118.978 6.40483C119.582 6.13494 120.265 6 121.029 6C121.803 6 122.481 6.13494 123.064 6.40483C123.65 6.67116 124.109 7.04226 124.443 7.51811C124.777 7.99041 124.949 8.53374 124.96 9.14808H123.058Z" fill="#CE422B"/>
<path d="M132.8 9.14808C132.75 8.68288 132.54 8.32067 132.171 8.06143C131.805 7.8022 131.329 7.67259 130.743 7.67259C130.332 7.67259 129.978 7.73473 129.683 7.85902C129.389 7.98331 129.163 8.15199 129.007 8.36506C128.851 8.57813 128.771 8.82138 128.767 9.09482C128.767 9.32209 128.819 9.51918 128.922 9.68608C129.028 9.85298 129.172 9.99503 129.353 10.1122C129.534 10.2259 129.735 10.3217 129.955 10.3999C130.175 10.478 130.397 10.5437 130.621 10.5969L131.644 10.8526C132.056 10.9485 132.452 11.0781 132.832 11.2415C133.215 11.4048 133.558 11.6108 133.86 11.8594C134.165 12.108 134.406 12.408 134.584 12.7596C134.762 13.1112 134.85 13.5231 134.85 13.9954C134.85 14.6346 134.687 15.1974 134.36 15.6839C134.034 16.1669 133.561 16.5451 132.943 16.8185C132.329 17.0884 131.585 17.2234 130.711 17.2234C129.863 17.2234 129.126 17.092 128.501 16.8292C127.879 16.5664 127.393 16.1829 127.041 15.6786C126.693 15.1744 126.505 14.56 126.477 13.8356H128.421C128.449 14.2156 128.567 14.5316 128.773 14.7837C128.979 15.0359 129.247 15.2241 129.577 15.3484C129.911 15.4727 130.284 15.5348 130.695 15.5348C131.125 15.5348 131.502 15.4709 131.825 15.343C132.151 15.2116 132.407 15.0305 132.592 14.7997C132.776 14.5653 132.871 14.2919 132.874 13.9794C132.871 13.6953 132.787 13.4609 132.624 13.2763C132.46 13.0881 132.231 12.9318 131.937 12.8075C131.645 12.6797 131.305 12.5661 130.914 12.4666L129.673 12.147C128.774 11.9162 128.064 11.5664 127.542 11.0977C127.024 10.6254 126.764 9.99858 126.764 9.21733C126.764 8.57457 126.938 8.01172 127.286 7.52876C127.638 7.04581 128.116 6.67116 128.719 6.40483C129.323 6.13494 130.007 6 130.77 6C131.544 6 132.222 6.13494 132.805 6.40483C133.391 6.67116 133.851 7.04226 134.184 7.51811C134.518 7.99041 134.691 8.53374 134.701 9.14808H132.8Z" fill="#CE422B"/>
<path d="M138.588 6.14915V17.0582H136.612V6.14915H138.588Z" fill="#CE422B"/>
<path d="M146.657 9.14808C146.607 8.68288 146.398 8.32067 146.028 8.06143C145.663 7.8022 145.187 7.67259 144.601 7.67259C144.189 7.67259 143.836 7.73473 143.541 7.85902C143.246 7.98331 143.021 8.15199 142.864 8.36506C142.708 8.57813 142.628 8.82138 142.625 9.09482C142.625 9.32209 142.676 9.51918 142.779 9.68608C142.886 9.85298 143.029 9.99503 143.211 10.1122C143.392 10.2259 143.592 10.3217 143.813 10.3999C144.033 10.478 144.255 10.5437 144.478 10.5969L145.501 10.8526C145.913 10.9485 146.309 11.0781 146.689 11.2415C147.072 11.4048 147.415 11.6108 147.717 11.8594C148.022 12.108 148.264 12.408 148.441 12.7596C148.619 13.1112 148.708 13.5231 148.708 13.9954C148.708 14.6346 148.544 15.1974 148.218 15.6839C147.891 16.1669 147.419 16.5451 146.801 16.8185C146.186 17.0884 145.442 17.2234 144.569 17.2234C143.72 17.2234 142.983 17.092 142.358 16.8292C141.737 16.5664 141.25 16.1829 140.899 15.6786C140.551 15.1744 140.363 14.56 140.334 13.8356H142.278C142.307 14.2156 142.424 14.5316 142.63 14.7837C142.836 15.0359 143.104 15.2241 143.434 15.3484C143.768 15.4727 144.141 15.5348 144.553 15.5348C144.983 15.5348 145.359 15.4709 145.682 15.343C146.009 15.2116 146.265 15.0305 146.449 14.7997C146.634 14.5653 146.728 14.2919 146.732 13.9794C146.728 13.6953 146.645 13.4609 146.481 13.2763C146.318 13.0881 146.089 12.9318 145.794 12.8075C145.503 12.6797 145.162 12.5661 144.771 12.4666L143.53 12.147C142.632 11.9162 141.922 11.5664 141.4 11.0977C140.881 10.6254 140.622 9.99858 140.622 9.21733C140.622 8.57457 140.796 8.01172 141.144 7.52876C141.495 7.04581 141.973 6.67116 142.577 6.40483C143.18 6.13494 143.864 6 144.627 6C145.402 6 146.08 6.13494 146.662 6.40483C147.248 6.67116 147.708 7.04226 148.042 7.51811C148.376 7.99041 148.548 8.53374 148.559 9.14808H146.657Z" fill="#CE422B"/>
<path d="M149.99 7.80575V6.14915H158.694V7.80575H155.322V17.0582H153.362V7.80575H149.99Z" fill="#CE422B"/>
</svg>
